<svg width="48" height="48" viewBox="0 0 48 48" fill="none" xmlns="http://www.w3.org/2000/svg">
<g clip-path="url(#clip0_3_8)">
<path d="M31 28H29.42L28.86 27.46C31.26 24.66 32.5 20.84 31.82 16.78C30.88 11.22 26.24 6.78 20.64 6.1C12.18 5.06 5.06003 12.18 6.10003 20.64C6.78003 26.24 11.22 30.88 16.78 31.82C20.84 32.5 24.66 31.26 27.46 28.86L28 29.42V31L36.5 39.5C37.32 40.32 38.66 40.32 39.48 39.5C40.3 38.68 40.3 37.34 39.48 36.52L31 28ZM19 28C14.02 28 10 23.98 10 19C10 14.02 14.02 10 19 10C23.98 10 28 14.02 28 19C28 23.98 23.98 28 19 28Z" fill="white"/>
</g>
<defs>
<clipPath id="clip0_3_8">
<rect width="48" height="48" fill="white"/>
</clipPath>
</defs>
</svg>
